<?xml version="1.0" standalone="no"?>
<!DOCTYPE svg PUBLIC "-//W3C//DTD SVG 20010904//EN"
 "http://www.w3.org/TR/2001/REC-SVG-20010904/DTD/svg10.dtd">
<svg version="1.0" xmlns="http://www.w3.org/2000/svg"
 width="512.000000pt" height="512.000000pt" viewBox="0 0 512.000000 512.000000"
 preserveAspectRatio="xMidYMid meet">
<metadata>
Created by potrace 1.16, written by Peter Selinger 2001-2019
</metadata>
<g transform="translate(0.000000,512.000000) scale(0.100000,-0.100000)"
fill="#000000" stroke="none">
<path d="M436 5105 c-158 -44 -305 -164 -376 -310 -53 -107 -60 -157 -60 -402
0 -210 1 -224 20 -243 26 -26 80 -26 111 -1 24 19 24 23 30 253 4 179 9 243
21 274 59 151 195 261 354 284 93 13 1925 13 2019 0 189 -28 339 -171 375
-359 6 -32 10 -242 10 -512 0 -446 1 -460 20 -479 31 -31 93 -27 120 7 21 27
21 30 18 523 l-3 495 -28 80 c-54 153 -151 268 -286 339 -133 69 -74 66 -1242
65 -849 -1 -1064 -3 -1103 -14z"/>
<path d="M1121 4824 c-28 -35 -26 -67 3 -101 l24 -28 432 0 432 0 19 24 c25
31 25 85 -1 111 -19 19 -33 20 -454 20 l-435 0 -20 -26z"/>
<path d="M539 4820 c-88 -16 -172 -78 -215 -160 -18 -34 -19 -106 -19 -2100
l0 -2065 22 -40 c30 -56 100 -118 159 -141 47 -18 90 -19 1065 -19 l1016 0 69
35 c80 41 136 110 153 191 7 30 11 195 11 418 0 357 -1 369 -21 395 -26 33
-88 37 -119 6 -19 -19 -20 -33 -20 -396 0 -363 -1 -378 -21 -414 -11 -20 -35
-45 -52 -56 -31 -18 -67 -19 -1000 -22 -644 -1 -981 1 -1007 8 -22 6 -51 25
-69 45 l-31 36 0 549 0 550 1098 0 1097 0 35 -47 c48 -65 120 -117 197 -142
58 -19 86 -21 343 -21 l280 0 0 -300 c0 -325 8 -396 56 -514 64 -157 202 -305
355 -380 109 -53 182 -74 295 -82 79 -7 81 -7 100 -42 10 -19 36 -49 57 -66
38 -30 41 -31 164 -34 159 -5 185 1 235 46 70 63 68 47 68 584 0 464 -1 484
-20 516 -37 60 -70 72 -205 72 -139 0 -167 -11 -206 -79 -25 -45 -52 -53 -69
-22 -5 11 -10 76 -10 145 l0 126 273 0 c326 0 342 3 428 89 70 71 93 131 87
234 -3 74 -28 138 -70 184 l-20 22 25 33 c14 18 35 54 46 78 41 91 19 244 -45
311 l-26 27 36 52 c43 63 56 106 56 190 0 70 -21 128 -66 187 l-25 33 30 37
c41 51 61 113 61 187 0 93 -24 152 -89 216 -85 85 -110 90 -411 90 l-248 0
-21 34 c-17 27 -21 50 -21 125 0 51 5 101 10 112 17 31 44 23 69 -22 39 -68
67 -79 206 -79 135 0 168 12 205 72 19 32 20 52 20 516 0 537 2 521 -68 584
-50 45 -76 51 -235 46 -123 -3 -126 -4 -164 -34 -21 -17 -47 -47 -57 -66 -19
-35 -21 -35 -100 -42 -45 -3 -108 -13 -141 -21 -67 -18 -180 -68 -207 -92 -25
-23 -24 -87 2 -113 28 -28 67 -25 142 10 84 39 182 60 289 60 102 0 122 11
142 80 9 30 21 49 37 57 36 18 150 17 178 -3 l22 -15 0 -445 0 -444 -62 0 -63
1 -26 43 c-61 101 -220 117 -301 30 -37 -40 -48 -74 -48 -148 l0 -64 -42 16
c-32 11 -100 16 -255 20 l-213 4 0 172 c0 196 12 260 65 366 55 110 41 174
-40 174 -45 0 -66 -21 -109 -107 -59 -122 -68 -169 -73 -399 l-5 -208 -47 0
c-78 0 -173 -20 -231 -47 -41 -20 -100 -71 -236 -205 -108 -106 -195 -184
-217 -193 -31 -13 -131 -15 -711 -15 -473 0 -682 -3 -699 -11 -47 -21 -60 -80
-26 -123 l21 -27 716 3 717 3 58 27 c46 22 98 66 245 211 137 135 198 188 227
198 31 11 115 14 395 14 347 0 356 0 396 -22 53 -28 107 -91 122 -142 8 -25
12 -139 12 -335 0 -318 -3 -341 -52 -367 -61 -33 -197 7 -257 77 -66 74 -75
105 -81 272 -5 146 -6 155 -29 173 -30 24 -72 24 -102 0 -23 -18 -24 -26 -29
-178 -5 -136 -9 -164 -27 -199 -35 -66 -70 -101 -131 -131 -55 -27 -63 -28
-260 -33 -187 -5 -205 -7 -218 -24 -21 -29 -18 -82 6 -106 19 -19 33 -20 230
-20 l210 0 0 -400 0 -400 -272 0 c-253 0 -276 2 -318 21 -86 39 -132 103 -148
203 -11 71 -33 96 -83 96 -44 0 -79 -35 -79 -81 l0 -29 -1075 0 -1075 0 0 585
0 585 328 0 329 0 21 23 c27 29 28 77 3 108 l-19 24 -331 3 -331 3 0 724 0
724 31 35 c35 40 79 56 157 56 52 0 53 -1 68 -37 48 -115 88 -162 173 -202
l56 -26 605 0 605 0 57 28 c70 34 118 88 154 174 l28 65 71 -4 c85 -6 125 -26
154 -78 21 -37 21 -47 21 -644 l0 -607 26 -26 c21 -21 32 -24 62 -20 71 12 67
-29 70 645 2 404 -1 624 -8 658 -27 127 -136 215 -284 229 -173 16 -232 -12
-280 -135 -20 -51 -38 -78 -64 -98 l-35 -27 -565 -3 c-557 -3 -565 -2 -608 19
-38 18 -48 30 -74 87 -50 110 -54 115 -89 136 -39 23 -171 31 -252 16z m4349
-1630 c18 -11 41 -34 52 -52 40 -66 16 -156 -52 -198 -30 -18 -51 -20 -255
-20 l-223 0 0 145 0 145 223 0 c204 0 225 -2 255 -20z m-7 -450 c104 -53 106
-195 4 -257 -27 -16 -58 -18 -289 -21 l-258 -3 21 30 c35 49 51 109 51 192 l0
79 215 0 c197 0 219 -2 256 -20z m-979 -280 c32 -21 85 -46 118 -56 l60 -18
-26 -33 c-46 -60 -64 -113 -64 -189 0 -83 19 -144 61 -196 l29 -37 -33 -44
c-19 -24 -39 -65 -47 -91 -18 -64 -9 -180 18 -231 22 -44 97 -119 137 -137
l25 -11 0 -163 c0 -173 6 -202 48 -248 81 -87 240 -71 301 30 l26 43 63 1 62
0 0 -444 0 -445 -22 -15 c-30 -21 -155 -22 -185 -1 -11 8 -26 34 -32 59 -16
65 -38 76 -147 76 -182 0 -320 56 -447 181 -62 62 -85 93 -116 160 -21 46 -44
108 -50 137 -7 36 -11 309 -11 858 l0 805 58 57 57 57 29 -34 c17 -19 56 -51
88 -71z m1010 -198 c36 -34 42 -45 45 -93 4 -45 1 -60 -19 -88 -47 -69 -59
-71 -383 -71 -256 0 -294 2 -325 18 -101 50 -108 191 -14 253 27 17 52 19 342
19 l313 0 41 -38z m-32 -430 c102 -51 106 -192 8 -252 -31 -19 -51 -20 -331
-20 -326 0 -331 1 -381 60 -51 61 -27 165 46 210 31 19 51 20 328 20 261 0
299 -2 330 -18z"/>
<path d="M26 3949 l-26 -21 2 -1736 3 -1737 23 -62 c63 -168 198 -301 368
-366 l59 -22 1068 -3 c1185 -3 1124 -6 1257 64 134 70 235 190 287 339 l28 80
3 359 c2 197 1 369 -2 382 -16 61 -80 82 -130 43 l-26 -20 0 -338 c0 -188 -5
-362 -10 -392 -36 -187 -188 -332 -375 -359 -94 -13 -1927 -13 -2019 0 -157
23 -293 133 -354 284 -16 37 -17 187 -22 1759 l-5 1719 -28 24 c-35 29 -66 31
-101 3z"/>
</g>
</svg>
