<?xml version="1.0" standalone="no"?>
<!DOCTYPE svg PUBLIC "-//W3C//DTD SVG 20010904//EN"
 "http://www.w3.org/TR/2001/REC-SVG-20010904/DTD/svg10.dtd">
<svg version="1.0" xmlns="http://www.w3.org/2000/svg"
 width="512.000000pt" height="512.000000pt" viewBox="0 0 512.000000 512.000000"
 preserveAspectRatio="xMidYMid meet">
<metadata>
Created by potrace 1.16, written by Peter Selinger 2001-2019
</metadata>
<g transform="translate(0.000000,512.000000) scale(0.100000,-0.100000)"
fill="#000000" stroke="none">
<path d="M1800 4492 c0 -369 4 -662 10 -712 21 -171 75 -332 158 -475 57 -97
161 -230 171 -219 4 5 13 29 20 54 19 66 82 186 134 255 278 370 776 470 1177
238 38 -22 107 -80 166 -138 112 -111 168 -195 219 -331 l32 -84 30 33 c92 97
201 290 247 435 49 155 56 237 56 620 l0 352 -91 0 c-169 0 -295 48 -387 147
-86 93 -122 195 -122 351 l0 102 -910 0 -910 0 0 -628z"/>
<path d="M2880 3454 c-195 -42 -379 -205 -441 -391 -30 -90 -38 -173 -28 -270
12 -105 39 -179 100 -272 l49 -74 0 -586 0 -586 -108 -108 -107 -107 -723 0
-722 0 0 -262 c0 -297 7 -345 68 -468 50 -102 158 -211 262 -263 143 -71 92
-68 1131 -65 l934 3 64 24 c84 31 200 110 256 174 25 29 64 88 86 132 65 131
69 167 69 623 l0 402 -150 0 -150 0 0 551 0 551 30 38 c68 86 120 242 120 360
0 86 -26 188 -71 279 -119 241 -399 373 -669 315z m125 -1197 c49 0 105 3 123
7 l32 8 0 -156 0 -156 -145 0 -145 0 0 156 0 155 22 -7 c12 -4 63 -7 113 -7z
m155 -752 l0 -145 -145 0 -145 0 0 145 0 145 145 0 145 0 0 -145z"/>
</g>
</svg>
