<?xml version="1.0" standalone="no"?>
<!DOCTYPE svg PUBLIC "-//W3C//DTD SVG 20010904//EN"
 "http://www.w3.org/TR/2001/REC-SVG-20010904/DTD/svg10.dtd">
<svg version="1.0" xmlns="http://www.w3.org/2000/svg"
 width="512.000000pt" height="512.000000pt" viewBox="0 0 512.000000 512.000000"
 preserveAspectRatio="xMidYMid meet">
<metadata>
Created by potrace 1.16, written by Peter Selinger 2001-2019
</metadata>
<g transform="translate(0.000000,512.000000) scale(0.100000,-0.100000)"
fill="#000000" stroke="none">
<path d="M785 5101 c-43 -27 -82 -70 -99 -113 -14 -33 -16 -225 -16 -1756 l0
-1718 25 -51 c15 -28 41 -63 60 -78 69 -52 91 -55 442 -55 l325 0 -7 -37 c-30
-158 -21 -364 21 -510 106 -366 396 -647 767 -744 104 -28 324 -37 435 -19 97
15 219 53 297 92 206 103 392 286 492 483 66 129 113 328 113 475 0 79 -13
202 -26 242 -5 16 20 17 338 20 312 3 346 5 378 22 49 26 88 64 113 111 l22
40 3 1705 c2 1243 0 1716 -8 1745 -17 58 -58 113 -105 141 l-42 24 -1749 0
c-1691 0 -1750 -1 -1779 -19z m3482 -140 c36 -24 43 -56 43 -191 l0 -129 -151
-3 c-145 -3 -152 -4 -170 -27 -25 -31 -24 -79 3 -108 21 -22 28 -23 170 -23
l148 0 0 -268 0 -268 -589 -317 -589 -317 -212 0 c-116 0 -219 -4 -229 -10
-31 -16 -45 -64 -29 -96 18 -38 52 -54 118 -54 l55 -1 -134 -71 -134 -71 -44
23 -43 23 0 270 c0 264 -1 271 -22 294 l-21 23 -523 0 -523 0 -285 153 -285
152 -1 268 0 267 1471 0 c922 0 1477 4 1488 10 10 5 24 23 31 39 15 37 -2 79
-40 98 -20 10 -329 13 -1487 13 l-1463 0 0 120 c0 142 12 183 62 205 50 22
3352 17 3385 -4z m-2569 -1672 l864 -464 -156 -3 -155 -3 -716 378 -715 378 0
93 c0 51 3 91 8 89 4 -2 395 -213 870 -468z m2612 377 l0 -94 -705 -372 -704
-371 -82 42 c-78 41 -80 43 -58 55 13 7 366 197 784 423 418 225 761 410 763
411 1 0 2 -42 2 -94z m-1990 -357 l0 -171 -62 35 c-35 19 -166 90 -293 158
-126 67 -239 128 -250 136 -16 11 31 13 293 13 l312 0 0 -171z m-1192 -81 l32
-20 0 -158 c0 -170 7 -201 47 -219 16 -7 135 -11 360 -11 l335 0 129 -67 129
-68 0 -153 c0 -84 4 -162 10 -172 12 -22 61 -40 111 -40 l39 0 0 -99 0 -98
-66 -18 c-37 -10 -113 -41 -170 -70 l-104 -52 0 229 c0 215 -1 229 -20 248
-19 19 -33 20 -388 20 -362 0 -369 0 -388 -21 -18 -20 -19 -43 -22 -372 -2
-240 1 -359 8 -378 19 -44 45 -49 275 -49 l214 0 -42 -85 -42 -85 -337 0
c-219 0 -345 4 -361 11 -54 25 -52 -20 -55 972 l-2 919 137 -73 c76 -39 153
-81 171 -91z m3170 -1686 c-24 -50 -38 -52 -401 -52 l-338 0 -21 48 c-12 26
-32 64 -44 84 l-24 37 231 3 c229 3 231 3 250 27 18 22 19 44 19 385 0 351 -1
363 -20 384 -21 22 -23 22 -390 22 l-369 0 -20 -26 c-20 -25 -21 -39 -21 -250
l0 -222 -67 39 c-67 38 -222 98 -255 99 -16 0 -18 11 -18 99 l0 98 62 6 c51 5
67 10 85 32 22 25 23 35 23 179 l0 153 663 349 662 350 3 -909 c2 -713 -1
-915 -10 -935z m-2839 1512 c69 -37 128 -68 130 -70 2 -2 -57 -4 -132 -4
l-137 0 0 70 c0 39 3 70 7 70 3 0 63 -30 132 -66z m1361 -484 l0 -90 -250 0
-250 0 0 90 0 90 250 0 250 0 0 -90z m-1000 -482 c0 -201 -2 -234 -17 -250
-15 -16 -36 -18 -250 -18 l-233 0 0 250 0 250 250 0 250 0 0 -232z m830 147
l0 -85 -85 0 -85 0 0 85 0 85 85 0 85 0 0 -85z m1160 -165 l0 -250 -232 0
c-201 0 -234 2 -250 17 -16 15 -18 36 -18 250 l0 233 250 0 250 0 0 -250z
m-990 -115 c315 -101 532 -320 627 -632 23 -78 26 -105 27 -238 1 -128 -3
-162 -22 -230 -93 -322 -319 -557 -627 -651 -82 -25 -104 -28 -255 -28 -194
-1 -242 9 -397 84 -253 123 -428 341 -494 617 -29 121 -29 285 0 407 85 356
376 630 739 696 26 5 108 7 182 6 113 -3 149 -8 220 -31z"/>
<path d="M960 4877 c-53 -27 -58 -111 -10 -137 10 -6 70 -10 134 -10 112 0
115 1 135 26 36 45 20 105 -32 124 -42 14 -196 12 -227 -3z"/>
<path d="M1374 4876 c-50 -22 -61 -87 -21 -124 21 -20 34 -22 140 -22 104 0
119 2 137 20 21 21 26 69 10 100 -5 10 -24 23 -41 29 -44 15 -187 13 -225 -3z"/>
<path d="M1790 4878 c-49 -26 -60 -89 -23 -130 14 -15 34 -18 133 -18 100 0
121 3 141 19 31 25 32 83 1 114 -20 19 -34 22 -125 25 -69 2 -110 -2 -127 -10z"/>
<path d="M1540 4297 c-46 -23 -51 -47 -48 -248 3 -168 5 -189 22 -208 l19 -21
1033 0 1033 0 21 22 c19 20 20 34 20 216 0 107 -4 201 -10 212 -5 10 -24 23
-41 29 -49 17 -2015 15 -2049 -2z m1940 -232 l0 -85 -915 0 -915 0 0 85 0 85
915 0 915 0 0 -85z"/>
<path d="M2679 3621 c-31 -25 -32 -83 -1 -114 21 -21 33 -22 188 -25 186 -4
226 0 255 29 26 26 25 83 -1 109 -19 19 -33 20 -219 20 -179 0 -201 -2 -222
-19z"/>
<path d="M2431 1810 c-291 -62 -509 -267 -582 -547 -38 -149 -22 -348 41 -489
80 -183 248 -333 445 -400 115 -39 286 -45 404 -15 147 37 254 97 354 198 389
394 229 1055 -298 1228 -64 21 -104 27 -200 30 -66 2 -140 0 -164 -5z m267
-165 c240 -57 428 -274 448 -519 15 -170 -46 -328 -174 -456 -117 -117 -244
-170 -405 -170 -318 0 -578 258 -578 572 0 111 19 187 69 282 78 149 247 271
412 299 57 10 169 6 228 -8z"/>
<path d="M2522 1474 c-12 -8 -45 -59 -71 -113 l-49 -97 -99 -13 c-103 -14
-146 -29 -157 -56 -17 -45 -6 -68 77 -154 l84 -86 -18 -100 c-20 -112 -17
-148 14 -170 36 -25 74 -17 170 35 l93 49 94 -49 c107 -56 146 -61 178 -27 26
28 27 53 6 171 l-15 89 81 82 c72 73 82 87 83 120 2 61 -29 79 -158 95 l-107
13 -43 93 c-24 50 -52 101 -64 113 -25 25 -68 27 -99 5z m83 -317 c19 -30 33
-36 110 -52 l30 -7 -28 -20 c-43 -32 -59 -70 -51 -128 l7 -50 -44 20 c-55 25
-70 25 -119 0 -22 -11 -41 -20 -44 -20 -2 0 -2 26 1 59 5 56 4 60 -31 98 -38
42 -35 53 14 53 37 0 69 23 92 67 19 37 25 41 33 27 6 -9 19 -30 30 -47z"/>
</g>
</svg>
